<?xml version="1.0" encoding="UTF-8" standalone="no"?>
<!DOCTYPE svg PUBLIC "-//W3C//DTD SVG 1.1//EN" "http://www.w3.org/Graphics/SVG/1.1/DTD/svg11.dtd">
<svg width="100%" height="100%" viewBox="0 0 211 116" version="1.1" xmlns="http://www.w3.org/2000/svg" xmlns:xlink="http://www.w3.org/1999/xlink" xml:space="preserve" xmlns:serif="http://www.serif.com/" style="fill-rule:evenodd;clip-rule:evenodd;stroke-linejoin:round;stroke-miterlimit:2;">
    <g transform="matrix(1,0,0,1,-706.23,-286.301)">
        <g transform="matrix(1,0,0,1,-114.103,-42.4229)">
            <g transform="matrix(1.32904,0,0,1.32904,792.721,303.011)">
                <path id="path4541" d="M174.673,44C170.789,54.558 165.013,65.084 161.508,67.993C159.493,69.665 157.745,68.345 158.962,66.071C160.926,62.402 157.169,62.017 148.5,65C142.211,67.164 134.041,67.641 132.344,65.944C131.602,65.202 130.312,65.708 128.012,67.644C123.398,71.526 118.643,71.403 114.983,67.307L112.22,64.215L106.86,69.647C102.881,73.68 100.884,75.005 99.108,74.79C95.284,74.327 94.885,71.162 97.626,63.022C98.974,59.019 99.869,55.536 99.615,55.281C98.368,54.035 90.013,63.579 87.555,69.058C85.375,73.915 84.569,74.888 83.478,73.982C82.343,73.04 82.44,72.278 84.059,69.396C85.126,67.495 86,65.702 86,65.411C86,65.121 83.257,66.994 79.903,69.574C70.158,77.073 59.25,80.097 54.494,76.619C52.853,75.419 51.777,75.55 46.28,77.619C42.801,78.929 39.177,80.002 38.227,80.003C36.011,80.007 26.137,97.052 23.611,105.233C23.292,106.267 22.476,106.736 21.589,106.396C20.331,105.913 20.465,105.005 22.462,100.49C23.76,97.555 26.695,91.947 28.984,88.028L33.145,80.902L30.573,78.879C29.158,77.766 28,75.882 28,74.692C28,70.692 33.438,61.733 40.376,54.304C48.843,45.239 54.73,41.532 59.448,42.298C62.153,42.737 63.254,42.355 65.15,40.323C69.227,35.953 73.038,33.638 74.215,34.815C74.962,35.562 76.977,34.675 81.039,31.81C85.128,28.927 87.902,27.71 90.588,27.623C94.053,27.511 94.492,27.805 95.766,31.101C98.21,37.424 96.157,42.007 86.469,51.848C79.166,59.267 77.909,60.169 76.502,59.001C75.061,57.806 75.191,57.539 77.74,56.467C81.207,55.01 91.243,44.115 93.5,39.36C94.543,37.161 94.903,34.834 94.49,32.953C93.643,29.099 89.999,28.983 84.482,32.637C77.552,37.227 74.133,41.15 69.977,49.282C64.796,59.418 57.915,69.181 56.368,68.588C55.256,68.161 53.486,70.82 54.325,71.658C54.529,71.862 58.927,70.271 64.098,68.122C75.318,63.46 83.594,60.907 85.331,61.573C86.027,61.84 87.529,61.033 88.67,59.779C91.257,56.937 99.87,41.265 103.014,33.68C105.548,27.565 107.396,26.581 109.144,30.417C110.092,32.498 109.717,33.715 106.447,39.167C104.357,42.65 101.326,47.456 99.71,49.846C97.117,53.681 97.023,54.058 98.906,53.05C101.231,51.806 103,52.384 103,54.387C103,55.084 101.875,58.424 100.5,61.808C95.502,74.108 98.435,76.681 106.9,67.419C110.473,63.51 112,61.006 112,59.058C112,56.629 111.683,56.338 109.494,56.756C106.588,57.312 103.879,55.478 104.648,53.474C105.424,51.453 114.318,46 116.838,46C118.452,46 119,46.607 119,48.393C119,49.709 118.296,51.056 117.435,51.387C116.249,51.842 116.016,51.524 116.476,50.077C117.29,47.511 114.396,48.256 110.429,51.633L107.5,54.127L113,53.368C116.025,52.951 121.618,52.567 125.43,52.515C129.241,52.463 132.514,51.958 132.703,51.392C132.891,50.826 130.81,49.316 128.079,48.037C121.873,45.13 117.237,40.433 116.388,36.192C115.811,33.306 116.197,32.503 119.814,29.062C127.47,21.779 143.763,17.829 157.639,19.893C169.211,21.614 179.081,26.723 178.952,30.924C178.925,31.791 177,37.675 174.673,44L174.673,44ZM170.607,26.509C158.839,20.751 140.984,20.937 128.268,26.951C115.492,32.993 115.759,39.277 129.077,46.028L134.655,48.855L136.246,46.16C140.959,38.182 150.379,30.164 153.59,31.396C155.601,32.168 155.341,33.859 152.667,37.406C151.384,39.108 149.17,43.063 147.747,46.196L145.16,51.892L150.33,52.941C153.174,53.518 157.975,54.39 161,54.878L166.5,55.766L160.299,55.883C156.889,55.947 151.778,55.502 148.941,54.894L143.784,53.788L138.892,58.606C136.201,61.256 134,63.779 134,64.212C134,65.692 141.679,65.003 147.5,63C153.914,60.793 158.157,60.479 160.998,61.999C162.517,62.812 163.251,62.456 164.933,60.095C166.07,58.498 167,56.753 167,56.218C167,55.683 167.636,54.717 168.414,54.071C171.431,51.567 177.347,33.546 176.226,30.276C175.995,29.603 173.467,27.908 170.607,26.509L170.607,26.509ZM150.118,34.937C148.028,36.056 139.41,45.366 137.964,48.067C137.222,49.454 137.557,49.923 139.665,50.452C142.894,51.263 143.487,50.685 148.082,42.246C152.413,34.289 152.604,33.607 150.118,34.937ZM136.857,52.015C134.984,51.996 134,53.983 134,57.778L134,60.392L137.497,57.003C141.015,53.594 140.817,52.052 136.857,52.015ZM120.655,54.792C116.168,55.316 115.845,57.474 119.589,61.923C121.34,64.004 123.08,65 124.966,65C128.431,65 129.742,63.486 130.168,58.996C130.473,55.78 130.252,55.455 127.405,54.933C125.703,54.621 122.666,54.557 120.655,54.792L120.655,54.792ZM117.143,62.357C114.074,58.634 114,58.605 114,61.137C114,64.596 117.588,69 120.406,69C123.47,69 124.527,67.739 122.188,66.874C121.142,66.487 118.872,64.454 117.143,62.357ZM107.526,32C107.265,32 106.353,33.35 105.5,35C103.555,38.761 104.4,38.988 106.428,35.25C108.133,32.107 108.169,32 107.526,32L107.526,32ZM75.414,66.011C65.372,69.436 55.053,74.277 55.67,75.276C56.648,76.858 66.304,75.515 71.283,73.105C76.003,70.82 82.675,65.342 81.801,64.468C81.541,64.208 78.667,64.902 75.414,66.011ZM68.018,41.194C65.458,43.319 64.03,45.342 64.018,46.859C64.002,48.917 64.51,48.6 68,44.377C73.095,38.212 73.102,36.972 68.018,41.194L68.018,41.194ZM65.5,51C64.125,52.864 63.014,55.089 63.031,55.944C63.048,56.8 64.171,55.7 65.526,53.5C68.73,48.297 68.713,46.645 65.5,51L65.5,51ZM56.448,52.419C52.033,57.204 42.027,70.847 38.635,76.705C38.14,77.56 39.473,77.457 43.219,76.349C50.393,74.227 52,73.255 52,71.038C52,68.884 58.351,56.252 60.548,54.036C61.347,53.23 61.98,51.205 61.955,49.536L61.91,46.5L56.448,52.419ZM54.41,46.044C44.884,50.655 30.585,68.111 31.197,74.382C31.64,78.922 34.296,78.885 37.092,74.301C41.694,66.755 49.476,56.384 54.801,50.701C57.79,47.511 59.981,44.647 59.67,44.336C59.359,44.025 56.992,44.794 54.41,46.043L54.41,46.044Z" style="fill-rule:nonzero;"/>
            </g>
        </g>
    </g>
</svg>
